<svg width="1024" height="753" viewBox="0 0 1024 753" fill="none" xmlns="http://www.w3.org/2000/svg">
<g opacity="0.2" filter="url(#filter0_f_175_198)">
<ellipse cx="496.5" cy="49" rx="670.5" ry="350" fill="#B3A659"/>
</g>
<path d="M17.0349 285C18.5302 285 19.6622 285.63 20.4308 286.891C21.2134 288.138 21.6047 289.953 21.6047 292.336C21.6047 294.719 21.2134 296.541 20.4308 297.802C19.6622 299.063 18.5302 299.693 17.0349 299.693C15.5536 299.693 14.4216 299.063 13.639 297.802C12.8564 296.541 12.4651 294.719 12.4651 292.336C12.4651 289.967 12.8564 288.152 13.639 286.891C14.4216 285.63 15.5536 285 17.0349 285ZM13.9534 292.336C13.9534 294.026 14.1072 295.35 14.4146 296.306L19.0683 287.099C18.5791 286.448 17.9013 286.122 17.0349 286.122C16.0706 286.122 15.316 286.635 14.771 287.66C14.2259 288.672 13.9534 290.23 13.9534 292.336ZM17.0349 298.55C18.0131 298.55 18.7748 298.044 19.3198 297.033C19.8648 296.008 20.1373 294.442 20.1373 292.336C20.1373 290.549 19.9627 289.163 19.6133 288.18L14.9596 297.469C15.4627 298.19 16.1545 298.55 17.0349 298.55Z" fill="url(#paint0_linear_175_198)" fill-opacity="0.6"/>
<path d="M18.2926 322.135H21.3741V323.236H13.3874V322.135H16.9511V310.455L13.5551 312.471L12.9682 311.536L17.1607 308.959H18.2926V322.135Z" fill="url(#paint1_linear_175_198)" fill-opacity="0.6"/>
<path d="M17.0349 332.502C18.5302 332.502 19.6622 333.133 20.4308 334.393C21.2134 335.64 21.6047 337.455 21.6047 339.838C21.6047 342.221 21.2134 344.043 20.4308 345.304C19.6622 346.565 18.5302 347.195 17.0349 347.195C15.5536 347.195 14.4216 346.565 13.639 345.304C12.8564 344.043 12.4651 342.221 12.4651 339.838C12.4651 337.469 12.8564 335.654 13.639 334.393C14.4216 333.133 15.5536 332.502 17.0349 332.502ZM13.9534 339.838C13.9534 341.529 14.1072 342.852 14.4146 343.808L19.0683 334.601C18.5791 333.95 17.9013 333.624 17.0349 333.624C16.0706 333.624 15.316 334.137 14.771 335.162C14.2259 336.174 13.9534 337.732 13.9534 339.838ZM17.0349 346.052C18.0131 346.052 18.7748 345.546 19.3198 344.535C19.8648 343.51 20.1373 341.944 20.1373 339.838C20.1373 338.051 19.9627 336.665 19.6133 335.682L14.9596 344.971C15.4627 345.692 16.1545 346.052 17.0349 346.052Z" fill="url(#paint2_linear_175_198)" fill-opacity="0.6"/>
<path d="M18.2926 369.637H21.3741V370.738H13.3874V369.637H16.9511V357.957L13.5551 359.973L12.9682 359.038L17.1607 356.461H18.2926V369.637Z" fill="url(#paint3_linear_175_198)" fill-opacity="0.6"/>
<path d="M18.2926 393.388H21.3741V394.489H13.3874V393.388H16.9511V381.708L13.5551 383.724L12.9682 382.789L17.1607 380.212H18.2926V393.388Z" fill="url(#paint4_linear_175_198)" fill-opacity="0.6"/>
<path d="M17.0349 403.755C18.5302 403.755 19.6622 404.386 20.4308 405.646C21.2134 406.893 21.6047 408.708 21.6047 411.091C21.6047 413.474 21.2134 415.296 20.4308 416.557C19.6622 417.818 18.5302 418.448 17.0349 418.448C15.5536 418.448 14.4216 417.818 13.639 416.557C12.8564 415.296 12.4651 413.474 12.4651 411.091C12.4651 408.722 12.8564 406.907 13.639 405.646C14.4216 404.386 15.5536 403.755 17.0349 403.755ZM13.9534 411.091C13.9534 412.782 14.1072 414.105 14.4146 415.061L19.0683 405.854C18.5791 405.203 17.9013 404.878 17.0349 404.878C16.0706 404.878 15.316 405.39 14.771 406.415C14.2259 407.427 13.9534 408.985 13.9534 411.091ZM17.0349 417.305C18.0131 417.305 18.7748 416.8 19.3198 415.788C19.8648 414.763 20.1373 413.197 20.1373 411.091C20.1373 409.304 19.9627 407.919 19.6133 406.935L14.9596 416.225C15.4627 416.945 16.1545 417.305 17.0349 417.305Z" fill="url(#paint5_linear_175_198)" fill-opacity="0.6"/>
<path d="M18.2926 440.89H21.3741V441.992H13.3874V440.89H16.9511V429.21L13.5551 431.226L12.9682 430.291L17.1607 427.714H18.2926V440.89Z" fill="url(#paint6_linear_175_198)" fill-opacity="0.6"/>
<path d="M17.0349 451.257C18.5302 451.257 19.6622 451.888 20.4308 453.149C21.2134 454.396 21.6047 456.211 21.6047 458.594C21.6047 460.977 21.2134 462.798 20.4308 464.059C19.6622 465.32 18.5302 465.95 17.0349 465.95C15.5536 465.95 14.4216 465.32 13.639 464.059C12.8564 462.798 12.4651 460.977 12.4651 458.594C12.4651 456.224 12.8564 454.409 13.639 453.149C14.4216 451.888 15.5536 451.257 17.0349 451.257ZM13.9534 458.594C13.9534 460.284 14.1072 461.607 14.4146 462.563L19.0683 453.356C18.5791 452.705 17.9013 452.38 17.0349 452.38C16.0706 452.38 15.316 452.892 14.771 453.918C14.2259 454.929 13.9534 456.488 13.9534 458.594ZM17.0349 464.807C18.0131 464.807 18.7748 464.302 19.3198 463.29C19.8648 462.265 20.1373 460.699 20.1373 458.594C20.1373 456.806 19.9627 455.421 19.6133 454.437L14.9596 463.727C15.4627 464.447 16.1545 464.807 17.0349 464.807Z" fill="url(#paint7_linear_175_198)" fill-opacity="0.6"/>
<path d="M17.0349 475.008C18.5302 475.008 19.6622 475.639 20.4308 476.9C21.2134 478.147 21.6047 479.962 21.6047 482.345C21.6047 484.728 21.2134 486.549 20.4308 487.81C19.6622 489.071 18.5302 489.701 17.0349 489.701C15.5536 489.701 14.4216 489.071 13.639 487.81C12.8564 486.549 12.4651 484.728 12.4651 482.345C12.4651 479.975 12.8564 478.16 13.639 476.9C14.4216 475.639 15.5536 475.008 17.0349 475.008ZM13.9534 482.345C13.9534 484.035 14.1072 485.358 14.4146 486.314L19.0683 477.107C18.5791 476.456 17.9013 476.131 17.0349 476.131C16.0706 476.131 15.316 476.643 14.771 477.669C14.2259 478.68 13.9534 480.239 13.9534 482.345ZM17.0349 488.558C18.0131 488.558 18.7748 488.053 19.3198 487.041C19.8648 486.016 20.1373 484.451 20.1373 482.345C20.1373 480.557 19.9627 479.172 19.6133 478.188L14.9596 487.478C15.4627 488.198 16.1545 488.558 17.0349 488.558Z" fill="url(#paint8_linear_175_198)" fill-opacity="0.6"/>
<path d="M18.2926 512.143H21.3741V513.245H13.3874V512.143H16.9511V500.464L13.5551 502.48L12.9682 501.544L17.1607 498.967H18.2926V512.143Z" fill="url(#paint9_linear_175_198)" fill-opacity="0.6"/>
<path d="M17.0349 522.511C18.5302 522.511 19.6622 523.141 20.4308 524.402C21.2134 525.649 21.6047 527.464 21.6047 529.847C21.6047 532.23 21.2134 534.052 20.4308 535.312C19.6622 536.573 18.5302 537.204 17.0349 537.204C15.5536 537.204 14.4216 536.573 13.639 535.312C12.8564 534.052 12.4651 532.23 12.4651 529.847C12.4651 527.478 12.8564 525.663 13.639 524.402C14.4216 523.141 15.5536 522.511 17.0349 522.511ZM13.9534 529.847C13.9534 531.537 14.1072 532.86 14.4146 533.816L19.0683 524.61C18.5791 523.958 17.9013 523.633 17.0349 523.633C16.0706 523.633 15.316 524.145 14.771 525.171C14.2259 526.182 13.9534 527.741 13.9534 529.847ZM17.0349 536.061C18.0131 536.061 18.7748 535.555 19.3198 534.543C19.8648 533.518 20.1373 531.953 20.1373 529.847C20.1373 528.059 19.9627 526.674 19.6133 525.69L14.9596 534.98C15.4627 535.7 16.1545 536.061 17.0349 536.061Z" fill="url(#paint10_linear_175_198)" fill-opacity="0.6"/>
<path d="M18.2926 559.645H21.3741V560.747H13.3874V559.645H16.9511V547.966L13.5551 549.982L12.9682 549.046L17.1607 546.469H18.2926V559.645Z" fill="url(#paint11_linear_175_198)" fill-opacity="0.6"/>
<path d="M18.2926 583.396H21.3741V584.498H13.3874V583.396H16.9511V571.717L13.5551 573.733L12.9682 572.798L17.1607 570.221H18.2926V583.396Z" fill="url(#paint12_linear_175_198)" fill-opacity="0.6"/>
<path d="M55.9651 332.502C57.4604 332.502 58.5924 333.133 59.361 334.393C60.1436 335.64 60.5349 337.455 60.5349 339.838C60.5349 342.221 60.1436 344.043 59.361 345.304C58.5924 346.565 57.4604 347.195 55.9651 347.195C54.4838 347.195 53.3518 346.565 52.5692 345.304C51.7866 344.043 51.3953 342.221 51.3953 339.838C51.3953 337.469 51.7866 335.654 52.5692 334.393C53.3518 333.133 54.4838 332.502 55.9651 332.502ZM52.8836 339.838C52.8836 341.529 53.0374 342.852 53.3448 343.808L57.9985 334.601C57.5093 333.95 56.8315 333.624 55.9651 333.624C55.0008 333.624 54.2462 334.137 53.7012 335.162C53.1561 336.174 52.8836 337.732 52.8836 339.838ZM55.9651 346.052C56.9433 346.052 57.705 345.546 58.25 344.535C58.795 343.51 59.0675 341.944 59.0675 339.838C59.0675 338.051 58.8928 336.665 58.5435 335.682L53.8898 344.971C54.3929 345.692 55.0847 346.052 55.9651 346.052Z" fill="url(#paint13_linear_175_198)" fill-opacity="0.6"/>
<path d="M57.2228 369.637H60.3043V370.738H52.3176V369.637H55.8812V357.957L52.4853 359.973L51.8984 359.038L56.0909 356.461H57.2228V369.637Z" fill="url(#paint14_linear_175_198)" fill-opacity="0.6"/>
<path d="M55.9651 380.004C57.4604 380.004 58.5924 380.635 59.361 381.895C60.1436 383.142 60.5349 384.957 60.5349 387.34C60.5349 389.723 60.1436 391.545 59.361 392.806C58.5924 394.067 57.4604 394.697 55.9651 394.697C54.4838 394.697 53.3518 394.067 52.5692 392.806C51.7866 391.545 51.3953 389.723 51.3953 387.34C51.3953 384.971 51.7866 383.156 52.5692 381.895C53.3518 380.635 54.4838 380.004 55.9651 380.004ZM52.8836 387.34C52.8836 389.031 53.0374 390.354 53.3448 391.31L57.9985 382.103C57.5093 381.452 56.8315 381.126 55.9651 381.126C55.0008 381.126 54.2462 381.639 53.7012 382.664C53.1561 383.676 52.8836 385.234 52.8836 387.34ZM55.9651 393.554C56.9433 393.554 57.705 393.049 58.25 392.037C58.795 391.012 59.0675 389.446 59.0675 387.34C59.0675 385.553 58.8928 384.168 58.5435 383.184L53.8898 392.474C54.3929 393.194 55.0847 393.554 55.9651 393.554Z" fill="url(#paint15_linear_175_198)" fill-opacity="0.6"/>
<path d="M55.9651 403.755C57.4604 403.755 58.5924 404.386 59.361 405.646C60.1436 406.893 60.5349 408.708 60.5349 411.091C60.5349 413.474 60.1436 415.296 59.361 416.557C58.5924 417.818 57.4604 418.448 55.9651 418.448C54.4838 418.448 53.3518 417.818 52.5692 416.557C51.7866 415.296 51.3953 413.474 51.3953 411.091C51.3953 408.722 51.7866 406.907 52.5692 405.646C53.3518 404.386 54.4838 403.755 55.9651 403.755ZM52.8836 411.091C52.8836 412.782 53.0374 414.105 53.3448 415.061L57.9985 405.854C57.5093 405.203 56.8315 404.878 55.9651 404.878C55.0008 404.878 54.2462 405.39 53.7012 406.415C53.1561 407.427 52.8836 408.985 52.8836 411.091ZM55.9651 417.305C56.9433 417.305 57.705 416.8 58.25 415.788C58.795 414.763 59.0675 413.197 59.0675 411.091C59.0675 409.304 58.8928 407.919 58.5435 406.935L53.8898 416.225C54.3929 416.945 55.0847 417.305 55.9651 417.305Z" fill="url(#paint16_linear_175_198)" fill-opacity="0.6"/>
<path d="M57.2228 440.89H60.3043V441.992H52.3176V440.89H55.8812V429.21L52.4853 431.226L51.8984 430.291L56.0909 427.714H57.2228V440.89Z" fill="url(#paint17_linear_175_198)" fill-opacity="0.6"/>
<path d="M55.9651 451.257C57.4604 451.257 58.5924 451.888 59.361 453.149C60.1436 454.396 60.5349 456.211 60.5349 458.594C60.5349 460.977 60.1436 462.798 59.361 464.059C58.5924 465.32 57.4604 465.95 55.9651 465.95C54.4838 465.95 53.3518 465.32 52.5692 464.059C51.7866 462.798 51.3953 460.977 51.3953 458.594C51.3953 456.224 51.7866 454.409 52.5692 453.149C53.3518 451.888 54.4838 451.257 55.9651 451.257ZM52.8836 458.594C52.8836 460.284 53.0374 461.607 53.3448 462.563L57.9985 453.356C57.5093 452.705 56.8315 452.38 55.9651 452.38C55.0008 452.38 54.2462 452.892 53.7012 453.918C53.1561 454.929 52.8836 456.488 52.8836 458.594ZM55.9651 464.807C56.9433 464.807 57.705 464.302 58.25 463.29C58.795 462.265 59.0675 460.699 59.0675 458.594C59.0675 456.806 58.8928 455.421 58.5435 454.437L53.8898 463.727C54.3929 464.447 55.0847 464.807 55.9651 464.807Z" fill="url(#paint18_linear_175_198)" fill-opacity="0.6"/>
<path d="M57.2228 488.392H60.3043V489.494H52.3176V488.392H55.8812V476.713L52.4853 478.728L51.8984 477.793L56.0909 475.216H57.2228V488.392Z" fill="url(#paint19_linear_175_198)" fill-opacity="0.6"/>
<path d="M55.9651 498.76C57.4604 498.76 58.5924 499.39 59.361 500.651C60.1436 501.898 60.5349 503.713 60.5349 506.096C60.5349 508.479 60.1436 510.301 59.361 511.561C58.5924 512.822 57.4604 513.453 55.9651 513.453C54.4838 513.453 53.3518 512.822 52.5692 511.561C51.7866 510.301 51.3953 508.479 51.3953 506.096C51.3953 503.726 51.7866 501.911 52.5692 500.651C53.3518 499.39 54.4838 498.76 55.9651 498.76ZM52.8836 506.096C52.8836 507.786 53.0374 509.109 53.3448 510.065L57.9985 500.859C57.5093 500.207 56.8315 499.882 55.9651 499.882C55.0008 499.882 54.2462 500.394 53.7012 501.42C53.1561 502.431 52.8836 503.99 52.8836 506.096ZM55.9651 512.31C56.9433 512.31 57.705 511.804 58.25 510.792C58.795 509.767 59.0675 508.202 59.0675 506.096C59.0675 504.308 58.8928 502.923 58.5435 501.939L53.8898 511.229C54.3929 511.949 55.0847 512.31 55.9651 512.31Z" fill="url(#paint20_linear_175_198)" fill-opacity="0.6"/>
<path d="M55.9651 522.511C57.4604 522.511 58.5924 523.141 59.361 524.402C60.1436 525.649 60.5349 527.464 60.5349 529.847C60.5349 532.23 60.1436 534.052 59.361 535.312C58.5924 536.573 57.4604 537.204 55.9651 537.204C54.4838 537.204 53.3518 536.573 52.5692 535.312C51.7866 534.052 51.3953 532.23 51.3953 529.847C51.3953 527.478 51.7866 525.663 52.5692 524.402C53.3518 523.141 54.4838 522.511 55.9651 522.511ZM52.8836 529.847C52.8836 531.537 53.0374 532.86 53.3448 533.816L57.9985 524.61C57.5093 523.958 56.8315 523.633 55.9651 523.633C55.0008 523.633 54.2462 524.145 53.7012 525.171C53.1561 526.182 52.8836 527.741 52.8836 529.847ZM55.9651 536.061C56.9433 536.061 57.705 535.555 58.25 534.543C58.795 533.518 59.0675 531.953 59.0675 529.847C59.0675 528.059 58.8928 526.674 58.5435 525.69L53.8898 534.98C54.3929 535.7 55.0847 536.061 55.9651 536.061Z" fill="url(#paint21_linear_175_198)" fill-opacity="0.6"/>
<path d="M57.2228 559.645H60.3043V560.747H52.3176V559.645H55.8812V547.966L52.4853 549.982L51.8984 549.046L56.0909 546.469H57.2228V559.645Z" fill="url(#paint22_linear_175_198)" fill-opacity="0.6"/>
<path d="M55.9651 570.013C57.4604 570.013 58.5924 570.643 59.361 571.904C60.1436 573.151 60.5349 574.966 60.5349 577.349C60.5349 579.732 60.1436 581.554 59.361 582.815C58.5924 584.075 57.4604 584.706 55.9651 584.706C54.4838 584.706 53.3518 584.075 52.5692 582.815C51.7866 581.554 51.3953 579.732 51.3953 577.349C51.3953 574.98 51.7866 573.165 52.5692 571.904C53.3518 570.643 54.4838 570.013 55.9651 570.013ZM52.8836 577.349C52.8836 579.039 53.0374 580.362 53.3448 581.318L57.9985 572.112C57.5093 571.461 56.8315 571.135 55.9651 571.135C55.0008 571.135 54.2462 571.648 53.7012 572.673C53.1561 573.684 52.8836 575.243 52.8836 577.349ZM55.9651 583.563C56.9433 583.563 57.705 583.057 58.25 582.046C58.795 581.02 59.0675 579.455 59.0675 577.349C59.0675 575.562 58.8928 574.176 58.5435 573.192L53.8898 582.482C54.3929 583.202 55.0847 583.563 55.9651 583.563Z" fill="url(#paint23_linear_175_198)" fill-opacity="0.6"/>
<path d="M57.2228 607.148H60.3043V608.249H52.3176V607.148H55.8812V595.468L52.4853 597.484L51.8984 596.549L56.0909 593.972H57.2228V607.148Z" fill="url(#paint24_linear_175_198)" fill-opacity="0.6"/>
<path d="M57.2228 630.899H60.3043V632H52.3176V630.899H55.8812V619.219L52.4853 621.235L51.8984 620.3L56.0909 617.723H57.2228V630.899Z" fill="url(#paint25_linear_175_198)" fill-opacity="0.6"/>
<path d="M-2.43019 356.253C-0.934876 356.253 0.197095 356.884 0.965717 358.144C1.74831 359.391 2.13961 361.206 2.13961 363.589C2.13961 365.972 1.74831 367.794 0.965717 369.055C0.197095 370.316 -0.934876 370.946 -2.43019 370.946C-3.91154 370.946 -5.04351 370.316 -5.8261 369.055C-6.6087 367.794 -7 365.972 -7 363.589C-7 361.22 -6.6087 359.405 -5.8261 358.144C-5.04351 356.884 -3.91154 356.253 -2.43019 356.253ZM-5.51167 363.589C-5.51167 365.28 -5.35794 366.603 -5.0505 367.559L-0.39684 358.352C-0.885962 357.701 -1.56375 357.375 -2.43019 357.375C-3.39447 357.375 -4.14911 357.888 -4.69413 358.913C-5.23916 359.925 -5.51167 361.483 -5.51167 363.589ZM-2.43019 369.803C-1.45195 369.803 -0.690314 369.297 -0.145291 368.286C0.399731 367.261 0.672243 365.695 0.672243 363.589C0.672243 361.802 0.497556 360.417 0.148183 359.433L-4.50547 368.722C-4.00237 369.443 -3.31062 369.803 -2.43019 369.803Z" fill="url(#paint26_linear_175_198)" fill-opacity="0.6"/>
<path d="M-2.43019 380.004C-0.934876 380.004 0.197095 380.635 0.965717 381.895C1.74831 383.142 2.13961 384.957 2.13961 387.34C2.13961 389.723 1.74831 391.545 0.965717 392.806C0.197095 394.067 -0.934876 394.697 -2.43019 394.697C-3.91154 394.697 -5.04351 394.067 -5.8261 392.806C-6.6087 391.545 -7 389.723 -7 387.34C-7 384.971 -6.6087 383.156 -5.8261 381.895C-5.04351 380.635 -3.91154 380.004 -2.43019 380.004ZM-5.51167 387.34C-5.51167 389.031 -5.35794 390.354 -5.0505 391.31L-0.39684 382.103C-0.885962 381.452 -1.56375 381.126 -2.43019 381.126C-3.39447 381.126 -4.14911 381.639 -4.69413 382.664C-5.23916 383.676 -5.51167 385.234 -5.51167 387.34ZM-2.43019 393.554C-1.45195 393.554 -0.690314 393.049 -0.145291 392.037C0.399731 391.012 0.672243 389.446 0.672243 387.34C0.672243 385.553 0.497556 384.168 0.148183 383.184L-4.50547 392.474C-4.00237 393.194 -3.31062 393.554 -2.43019 393.554Z" fill="url(#paint27_linear_175_198)" fill-opacity="0.6"/>
<path d="M-1.17245 417.139H1.90903V418.24H-6.07765V417.139H-2.51404V405.459L-5.90995 407.475L-6.4969 406.54L-2.30442 403.963H-1.17245V417.139Z" fill="url(#paint28_linear_175_198)" fill-opacity="0.6"/>
<path d="M-2.43019 427.506C-0.934876 427.506 0.197095 428.137 0.965717 429.398C1.74831 430.644 2.13961 432.459 2.13961 434.842C2.13961 437.225 1.74831 439.047 0.965717 440.308C0.197095 441.569 -0.934876 442.199 -2.43019 442.199C-3.91154 442.199 -5.04351 441.569 -5.8261 440.308C-6.6087 439.047 -7 437.225 -7 434.842C-7 432.473 -6.6087 430.658 -5.8261 429.398C-5.04351 428.137 -3.91154 427.506 -2.43019 427.506ZM-5.51167 434.842C-5.51167 436.533 -5.35794 437.856 -5.0505 438.812L-0.39684 429.605C-0.885962 428.954 -1.56375 428.629 -2.43019 428.629C-3.39447 428.629 -4.14911 429.141 -4.69413 430.166C-5.23916 431.178 -5.51167 432.737 -5.51167 434.842ZM-2.43019 441.056C-1.45195 441.056 -0.690314 440.551 -0.145291 439.539C0.399731 438.514 0.672243 436.948 0.672243 434.842C0.672243 433.055 0.497556 431.67 0.148183 430.686L-4.50547 439.976C-4.00237 440.696 -3.31062 441.056 -2.43019 441.056Z" fill="url(#paint29_linear_175_198)" fill-opacity="0.6"/>
<path d="M-1.17245 464.641H1.90903V465.743H-6.07765V464.641H-2.51404V452.962L-5.90995 454.977L-6.4969 454.042L-2.30442 451.465H-1.17245V464.641Z" fill="url(#paint30_linear_175_198)" fill-opacity="0.6"/>
<path d="M-1.17245 488.392H1.90903V489.494H-6.07765V488.392H-2.51404V476.713L-5.90995 478.728L-6.4969 477.793L-2.30442 475.216H-1.17245V488.392Z" fill="url(#paint31_linear_175_198)" fill-opacity="0.6"/>
<path d="M37.7577 322.135H40.8392V323.236H32.8525V322.135H36.4162V310.455L33.0202 312.471L32.4333 311.536L36.6258 308.959H37.7577V322.135Z" fill="url(#paint32_linear_175_198)" fill-opacity="0.6"/>
<path d="M36.5 332.502C37.9953 332.502 39.1273 333.133 39.8959 334.393C40.6785 335.64 41.0698 337.455 41.0698 339.838C41.0698 342.221 40.6785 344.043 39.8959 345.304C39.1273 346.565 37.9953 347.195 36.5 347.195C35.0187 347.195 33.8867 346.565 33.1041 345.304C32.3215 344.043 31.9302 342.221 31.9302 339.838C31.9302 337.469 32.3215 335.654 33.1041 334.393C33.8867 333.133 35.0187 332.502 36.5 332.502ZM33.4185 339.838C33.4185 341.529 33.5723 342.852 33.8797 343.808L38.5334 334.601C38.0442 333.95 37.3664 333.624 36.5 333.624C35.5357 333.624 34.7811 334.137 34.2361 335.162C33.691 336.174 33.4185 337.732 33.4185 339.838ZM36.5 346.052C37.4782 346.052 38.2399 345.546 38.7849 344.535C39.3299 343.51 39.6024 341.944 39.6024 339.838C39.6024 338.051 39.4277 336.665 39.0784 335.682L34.4247 344.971C34.9278 345.692 35.6196 346.052 36.5 346.052Z" fill="url(#paint33_linear_175_198)" fill-opacity="0.6"/>
<path d="M37.7577 369.637H40.8392V370.738H32.8525V369.637H36.4162V357.957L33.0202 359.973L32.4333 359.038L36.6258 356.461H37.7577V369.637Z" fill="url(#paint34_linear_175_198)" fill-opacity="0.6"/>
<path d="M37.7577 393.388H40.8392V394.489H32.8525V393.388H36.4162V381.708L33.0202 383.724L32.4333 382.789L36.6258 380.212H37.7577V393.388Z" fill="url(#paint35_linear_175_198)" fill-opacity="0.6"/>
<path d="M36.5 403.755C37.9953 403.755 39.1273 404.386 39.8959 405.646C40.6785 406.893 41.0698 408.708 41.0698 411.091C41.0698 413.474 40.6785 415.296 39.8959 416.557C39.1273 417.818 37.9953 418.448 36.5 418.448C35.0187 418.448 33.8867 417.818 33.1041 416.557C32.3215 415.296 31.9302 413.474 31.9302 411.091C31.9302 408.722 32.3215 406.907 33.1041 405.646C33.8867 404.386 35.0187 403.755 36.5 403.755ZM33.4185 411.091C33.4185 412.782 33.5723 414.105 33.8797 415.061L38.5334 405.854C38.0442 405.203 37.3664 404.878 36.5 404.878C35.5357 404.878 34.7811 405.39 34.2361 406.415C33.691 407.427 33.4185 408.985 33.4185 411.091ZM36.5 417.305C37.4782 417.305 38.2399 416.8 38.7849 415.788C39.3299 414.763 39.6024 413.197 39.6024 411.091C39.6024 409.304 39.4277 407.919 39.0784 406.935L34.4247 416.225C34.9278 416.945 35.6196 417.305 36.5 417.305Z" fill="url(#paint36_linear_175_198)" fill-opacity="0.6"/>
<path d="M37.7577 440.89H40.8392V441.992H32.8525V440.89H36.4162V429.21L33.0202 431.226L32.4333 430.291L36.6258 427.714H37.7577V440.89Z" fill="url(#paint37_linear_175_198)" fill-opacity="0.6"/>
<path d="M37.7577 464.641H40.8392V465.743H32.8525V464.641H36.4162V452.962L33.0202 454.977L32.4333 454.042L36.6258 451.465H37.7577V464.641Z" fill="url(#paint38_linear_175_198)" fill-opacity="0.6"/>
<path d="M36.5 475.008C37.9953 475.008 39.1273 475.639 39.8959 476.9C40.6785 478.147 41.0698 479.962 41.0698 482.345C41.0698 484.728 40.6785 486.549 39.8959 487.81C39.1273 489.071 37.9953 489.701 36.5 489.701C35.0187 489.701 33.8867 489.071 33.1041 487.81C32.3215 486.549 31.9302 484.728 31.9302 482.345C31.9302 479.975 32.3215 478.16 33.1041 476.9C33.8867 475.639 35.0187 475.008 36.5 475.008ZM33.4185 482.345C33.4185 484.035 33.5723 485.358 33.8797 486.314L38.5334 477.107C38.0442 476.456 37.3664 476.131 36.5 476.131C35.5357 476.131 34.7811 476.643 34.2361 477.669C33.691 478.68 33.4185 480.239 33.4185 482.345ZM36.5 488.558C37.4782 488.558 38.2399 488.053 38.7849 487.041C39.3299 486.016 39.6024 484.451 39.6024 482.345C39.6024 480.557 39.4277 479.172 39.0784 478.188L34.4247 487.478C34.9278 488.198 35.6196 488.558 36.5 488.558Z" fill="url(#paint39_linear_175_198)" fill-opacity="0.6"/>
<path d="M37.7577 512.143H40.8392V513.245H32.8525V512.143H36.4162V500.464L33.0202 502.48L32.4333 501.544L36.6258 498.967H37.7577V512.143Z" fill="url(#paint40_linear_175_198)" fill-opacity="0.6"/>
<path d="M36.5 522.511C37.9953 522.511 39.1273 523.141 39.8959 524.402C40.6785 525.649 41.0698 527.464 41.0698 529.847C41.0698 532.23 40.6785 534.052 39.8959 535.312C39.1273 536.573 37.9953 537.204 36.5 537.204C35.0187 537.204 33.8867 536.573 33.1041 535.312C32.3215 534.052 31.9302 532.23 31.9302 529.847C31.9302 527.478 32.3215 525.663 33.1041 524.402C33.8867 523.141 35.0187 522.511 36.5 522.511ZM33.4185 529.847C33.4185 531.537 33.5723 532.86 33.8797 533.816L38.5334 524.61C38.0442 523.958 37.3664 523.633 36.5 523.633C35.5357 523.633 34.7811 524.145 34.2361 525.171C33.691 526.182 33.4185 527.741 33.4185 529.847ZM36.5 536.061C37.4782 536.061 38.2399 535.555 38.7849 534.543C39.3299 533.518 39.6024 531.953 39.6024 529.847C39.6024 528.059 39.4277 526.674 39.0784 525.69L34.4247 534.98C34.9278 535.7 35.6196 536.061 36.5 536.061Z" fill="url(#paint41_linear_175_198)" fill-opacity="0.6"/>
<path d="M75.4302 308.751C76.9255 308.751 78.0575 309.381 78.8261 310.642C79.6087 311.889 80 313.704 80 316.087C80 318.47 79.6087 320.292 78.8261 321.553C78.0575 322.814 76.9255 323.444 75.4302 323.444C73.9489 323.444 72.8169 322.814 72.0343 321.553C71.2517 320.292 70.8604 318.47 70.8604 316.087C70.8604 313.718 71.2517 311.903 72.0343 310.642C72.8169 309.381 73.9489 308.751 75.4302 308.751ZM72.3487 316.087C72.3487 317.777 72.5024 319.101 72.8099 320.057L77.4636 310.85C76.9744 310.199 76.2966 309.873 75.4302 309.873C74.4659 309.873 73.7113 310.386 73.1663 311.411C72.6212 312.423 72.3487 313.981 72.3487 316.087ZM75.4302 322.301C76.4084 322.301 77.1701 321.795 77.7151 320.784C78.2601 319.759 78.5326 318.193 78.5326 316.087C78.5326 314.3 78.3579 312.914 78.0086 311.931L73.3549 321.22C73.858 321.941 74.5498 322.301 75.4302 322.301Z" fill="url(#paint42_linear_175_198)" fill-opacity="0.6"/>
<path d="M76.6879 345.886H79.7694V346.987H71.7827V345.886H75.3463V334.206L71.9504 336.222L71.3635 335.287L75.556 332.71H76.6879V345.886Z" fill="url(#paint43_linear_175_198)" fill-opacity="0.6"/>
<path d="M76.6879 369.637H79.7694V370.738H71.7827V369.637H75.3463V357.957L71.9504 359.973L71.3635 359.038L75.556 356.461H76.6879V369.637Z" fill="url(#paint44_linear_175_198)" fill-opacity="0.6"/>
<path d="M75.4302 380.004C76.9255 380.004 78.0575 380.635 78.8261 381.895C79.6087 383.142 80 384.957 80 387.34C80 389.723 79.6087 391.545 78.8261 392.806C78.0575 394.067 76.9255 394.697 75.4302 394.697C73.9489 394.697 72.8169 394.067 72.0343 392.806C71.2517 391.545 70.8604 389.723 70.8604 387.34C70.8604 384.971 71.2517 383.156 72.0343 381.895C72.8169 380.635 73.9489 380.004 75.4302 380.004ZM72.3487 387.34C72.3487 389.031 72.5024 390.354 72.8099 391.31L77.4636 382.103C76.9744 381.452 76.2966 381.126 75.4302 381.126C74.4659 381.126 73.7113 381.639 73.1663 382.664C72.6212 383.676 72.3487 385.234 72.3487 387.34ZM75.4302 393.554C76.4084 393.554 77.1701 393.049 77.7151 392.037C78.2601 391.012 78.5326 389.446 78.5326 387.34C78.5326 385.553 78.3579 384.168 78.0086 383.184L73.3549 392.474C73.858 393.194 74.5498 393.554 75.4302 393.554Z" fill="url(#paint45_linear_175_198)" fill-opacity="0.6"/>
<path d="M75.4302 403.755C76.9255 403.755 78.0575 404.386 78.8261 405.646C79.6087 406.893 80 408.708 80 411.091C80 413.474 79.6087 415.296 78.8261 416.557C78.0575 417.818 76.9255 418.448 75.4302 418.448C73.9489 418.448 72.8169 417.818 72.0343 416.557C71.2517 415.296 70.8604 413.474 70.8604 411.091C70.8604 408.722 71.2517 406.907 72.0343 405.646C72.8169 404.386 73.9489 403.755 75.4302 403.755ZM72.3487 411.091C72.3487 412.782 72.5024 414.105 72.8099 415.061L77.4636 405.854C76.9744 405.203 76.2966 404.878 75.4302 404.878C74.4659 404.878 73.7113 405.39 73.1663 406.415C72.6212 407.427 72.3487 408.985 72.3487 411.091ZM75.4302 417.305C76.4084 417.305 77.1701 416.8 77.7151 415.788C78.2601 414.763 78.5326 413.197 78.5326 411.091C78.5326 409.304 78.3579 407.919 78.0086 406.935L73.3549 416.225C73.858 416.945 74.5498 417.305 75.4302 417.305Z" fill="url(#paint46_linear_175_198)" fill-opacity="0.6"/>
<g opacity="0.6">
<path d="M903.93 -15C905.356 -15 906.436 -14.395 907.17 -13.1851C907.916 -11.9885 908.29 -10.2468 908.29 -7.95987C908.29 -5.67299 907.916 -3.9246 907.17 -2.71468C906.436 -1.50476 905.356 -0.899802 903.93 -0.899802C902.517 -0.899802 901.437 -1.50476 900.69 -2.71468C899.943 -3.9246 899.57 -5.67299 899.57 -7.95987C899.57 -10.2335 899.943 -11.9752 900.69 -13.1851C901.437 -14.395 902.517 -15 903.93 -15ZM900.99 -7.95987C900.99 -6.33778 901.137 -5.06804 901.43 -4.15063L905.87 -12.9857C905.403 -13.6106 904.756 -13.923 903.93 -13.923C903.01 -13.923 902.29 -13.4311 901.77 -12.4472C901.25 -11.4766 900.99 -9.98083 900.99 -7.95987ZM903.93 -1.99671C904.863 -1.99671 905.59 -2.482 906.11 -3.4526C906.63 -4.43649 906.89 -5.93891 906.89 -7.95987C906.89 -9.67503 906.723 -11.0046 906.39 -11.9486L901.95 -3.03378C902.43 -2.3424 903.09 -1.99671 903.93 -1.99671Z" fill="url(#paint47_linear_175_198)"/>
<path d="M905.13 20.6365H908.07V21.6936H900.45V20.6365H903.85V9.42819L900.61 11.3627L900.05 10.4653L904.05 7.99224H905.13V20.6365Z" fill="url(#paint48_linear_175_198)"/>
<path d="M903.93 30.5856C905.356 30.5856 906.436 31.1906 907.17 32.4005C907.916 33.5971 908.29 35.3389 908.29 37.6257C908.29 39.9126 907.916 41.661 907.17 42.8709C906.436 44.0808 905.356 44.6858 903.93 44.6858C902.517 44.6858 901.437 44.0808 900.69 42.8709C899.943 41.661 899.57 39.9126 899.57 37.6257C899.57 35.3522 899.943 33.6104 900.69 32.4005C901.437 31.1906 902.517 30.5856 903.93 30.5856ZM900.99 37.6257C900.99 39.2478 901.137 40.5176 901.43 41.435L905.87 32.5999C905.403 31.975 904.756 31.6626 903.93 31.6626C903.01 31.6626 902.29 32.1545 901.77 33.1384C901.25 34.109 900.99 35.6048 900.99 37.6257ZM903.93 43.5889C904.863 43.5889 905.59 43.1036 906.11 42.133C906.63 41.1491 906.89 39.6467 906.89 37.6257C906.89 35.9106 906.723 34.581 906.39 33.637L901.95 42.5518C902.43 43.2432 903.09 43.5889 903.93 43.5889Z" fill="url(#paint49_linear_175_198)"/>
<path d="M905.13 66.2221H908.07V67.2792H900.45V66.2221H903.85V55.0138L900.61 56.9483L900.05 56.0509L904.05 53.5778H905.13V66.2221Z" fill="url(#paint50_linear_175_198)"/>
<path d="M905.13 89.015H908.07V90.072H900.45V89.015H903.85V77.8066L900.61 79.7411L900.05 78.8437L904.05 76.3706H905.13V89.015Z" fill="url(#paint51_linear_175_198)"/>
<path d="M903.93 98.964C905.356 98.964 906.436 99.569 907.17 100.779C907.916 101.976 908.29 103.717 908.29 106.004C908.29 108.291 907.916 110.039 907.17 111.249C906.436 112.459 905.356 113.064 903.93 113.064C902.517 113.064 901.437 112.459 900.69 111.249C899.943 110.039 899.57 108.291 899.57 106.004C899.57 103.731 899.943 101.989 900.69 100.779C901.437 99.569 902.517 98.964 903.93 98.964ZM900.99 106.004C900.99 107.626 901.137 108.896 901.43 109.813L905.87 100.978C905.403 100.353 904.756 100.041 903.93 100.041C903.01 100.041 902.29 100.533 901.77 101.517C901.25 102.487 900.99 103.983 900.99 106.004ZM903.93 111.967C904.863 111.967 905.59 111.482 906.11 110.511C906.63 109.528 906.89 108.025 906.89 106.004C906.89 104.289 906.723 102.959 906.39 102.015L901.95 110.93C902.43 111.622 903.09 111.967 903.93 111.967Z" fill="url(#paint52_linear_175_198)"/>
<path d="M905.13 134.601H908.07V135.658H900.45V134.601H903.85V123.392L900.61 125.327L900.05 124.429L904.05 121.956H905.13V134.601Z" fill="url(#paint53_linear_175_198)"/>
<path d="M903.93 144.55C905.356 144.55 906.436 145.155 907.17 146.365C907.916 147.561 908.29 149.303 908.29 151.59C908.29 153.877 907.916 155.625 907.17 156.835C906.436 158.045 905.356 158.65 903.93 158.65C902.517 158.65 901.437 158.045 900.69 156.835C899.943 155.625 899.57 153.877 899.57 151.59C899.57 149.316 899.943 147.574 900.69 146.365C901.437 145.155 902.517 144.55 903.93 144.55ZM900.99 151.59C900.99 153.212 901.137 154.482 901.43 155.399L905.87 146.564C905.403 145.939 904.756 145.627 903.93 145.627C903.01 145.627 902.29 146.119 901.77 147.102C901.25 148.073 900.99 149.569 900.99 151.59ZM903.93 157.553C904.863 157.553 905.59 157.068 906.11 156.097C906.63 155.113 906.89 153.611 906.89 151.59C906.89 149.875 906.723 148.545 906.39 147.601L901.95 156.516C902.43 157.207 903.09 157.553 903.93 157.553Z" fill="url(#paint54_linear_175_198)"/>
<path d="M903.93 167.342C905.356 167.342 906.436 167.947 907.17 169.157C907.916 170.354 908.29 172.096 908.29 174.383C908.29 176.669 907.916 178.418 907.17 179.628C906.436 180.838 905.356 181.443 903.93 181.443C902.517 181.443 901.437 180.838 900.69 179.628C899.943 178.418 899.57 176.669 899.57 174.383C899.57 172.109 899.943 170.367 900.69 169.157C901.437 167.947 902.517 167.342 903.93 167.342ZM900.99 174.383C900.99 176.005 901.137 177.274 901.43 178.192L905.87 169.357C905.403 168.732 904.756 168.419 903.93 168.419C903.01 168.419 902.29 168.911 901.77 169.895C901.25 170.866 900.99 172.362 900.99 174.383ZM903.93 180.346C904.863 180.346 905.59 179.86 906.11 178.89C906.63 177.906 906.89 176.404 906.89 174.383C906.89 172.667 906.723 171.338 906.39 170.394L901.95 179.309C902.43 180 903.09 180.346 903.93 180.346Z" fill="url(#paint55_linear_175_198)"/>
<path d="M905.13 202.979H908.07V204.036H900.45V202.979H903.85V191.771L900.61 193.705L900.05 192.808L904.05 190.335H905.13V202.979Z" fill="url(#paint56_linear_175_198)"/>
<path d="M903.93 212.928C905.356 212.928 906.436 213.533 907.17 214.743C907.916 215.94 908.29 217.681 908.29 219.968C908.29 222.255 907.916 224.003 907.17 225.213C906.436 226.423 905.356 227.028 903.93 227.028C902.517 227.028 901.437 226.423 900.69 225.213C899.943 224.003 899.57 222.255 899.57 219.968C899.57 217.695 899.943 215.953 900.69 214.743C901.437 213.533 902.517 212.928 903.93 212.928ZM900.99 219.968C900.99 221.59 901.137 222.86 901.43 223.777L905.87 214.942C905.403 214.317 904.756 214.005 903.93 214.005C903.01 214.005 902.29 214.497 901.77 215.481C901.25 216.451 900.99 217.947 900.99 219.968ZM903.93 225.931C904.863 225.931 905.59 225.446 906.11 224.475C906.63 223.492 906.89 221.989 906.89 219.968C906.89 218.253 906.723 216.923 906.39 215.979L901.95 224.894C902.43 225.586 903.09 225.931 903.93 225.931Z" fill="url(#paint57_linear_175_198)"/>
<path d="M905.13 248.565H908.07V249.622H900.45V248.565H903.85V237.356L900.61 239.291L900.05 238.393L904.05 235.92H905.13V248.565Z" fill="url(#paint58_linear_175_198)"/>
<path d="M905.13 271.357H908.07V272.414H900.45V271.357H903.85V260.149L900.61 262.084L900.05 261.186L904.05 258.713H905.13V271.357Z" fill="url(#paint59_linear_175_198)"/>
<path d="M941.07 30.5856C942.497 30.5856 943.577 31.1906 944.31 32.4005C945.057 33.5971 945.43 35.3389 945.43 37.6257C945.43 39.9126 945.057 41.661 944.31 42.8709C943.577 44.0808 942.497 44.6858 941.07 44.6858C939.657 44.6858 938.577 44.0808 937.83 42.8709C937.084 41.661 936.71 39.9126 936.71 37.6257C936.71 35.3522 937.084 33.6104 937.83 32.4005C938.577 31.1906 939.657 30.5856 941.07 30.5856ZM938.13 37.6257C938.13 39.2478 938.277 40.5176 938.57 41.435L943.01 32.5999C942.543 31.975 941.897 31.6626 941.07 31.6626C940.15 31.6626 939.43 32.1545 938.91 33.1384C938.39 34.109 938.13 35.6048 938.13 37.6257ZM941.07 43.5889C942.003 43.5889 942.73 43.1036 943.25 42.133C943.77 41.1491 944.03 39.6467 944.03 37.6257C944.03 35.9106 943.863 34.581 943.53 33.637L939.09 42.5518C939.57 43.2432 940.23 43.5889 941.07 43.5889Z" fill="url(#paint60_linear_175_198)"/>
<path d="M942.27 66.2221H945.21V67.2792H937.59V66.2221H940.99V55.0138L937.75 56.9483L937.19 56.0509L941.19 53.5778H942.27V66.2221Z" fill="url(#paint61_linear_175_198)"/>
<path d="M941.07 76.1712C942.497 76.1712 943.577 76.7762 944.31 77.9861C945.057 79.1827 945.43 80.9245 945.43 83.2113C945.43 85.4982 945.057 87.2466 944.31 88.4565C943.577 89.6664 942.497 90.2714 941.07 90.2714C939.657 90.2714 938.577 89.6664 937.83 88.4565C937.084 87.2466 936.71 85.4982 936.71 83.2113C936.71 80.9378 937.084 79.196 937.83 77.9861C938.577 76.7762 939.657 76.1712 941.07 76.1712ZM938.13 83.2113C938.13 84.8334 938.277 86.1032 938.57 87.0206L943.01 78.1855C942.543 77.5606 941.897 77.2482 941.07 77.2482C940.15 77.2482 939.43 77.7401 938.91 78.724C938.39 79.6946 938.13 81.1904 938.13 83.2113ZM941.07 89.1745C942.003 89.1745 942.73 88.6892 943.25 87.7186C943.77 86.7347 944.03 85.2323 944.03 83.2113C944.03 81.4962 943.863 80.1666 943.53 79.2226L939.09 88.1374C939.57 88.8288 940.23 89.1745 941.07 89.1745Z" fill="url(#paint62_linear_175_198)"/>
<path d="M941.07 98.964C942.497 98.964 943.577 99.569 944.31 100.779C945.057 101.976 945.43 103.717 945.43 106.004C945.43 108.291 945.057 110.039 944.31 111.249C943.577 112.459 942.497 113.064 941.07 113.064C939.657 113.064 938.577 112.459 937.83 111.249C937.084 110.039 936.71 108.291 936.71 106.004C936.71 103.731 937.084 101.989 937.83 100.779C938.577 99.569 939.657 98.964 941.07 98.964ZM938.13 106.004C938.13 107.626 938.277 108.896 938.57 109.813L943.01 100.978C942.543 100.353 941.897 100.041 941.07 100.041C940.15 100.041 939.43 100.533 938.91 101.517C938.39 102.487 938.13 103.983 938.13 106.004ZM941.07 111.967C942.003 111.967 942.73 111.482 943.25 110.511C943.77 109.528 944.03 108.025 944.03 106.004C944.03 104.289 943.863 102.959 943.53 102.015L939.09 110.93C939.57 111.622 940.23 111.967 941.07 111.967Z" fill="url(#paint63_linear_175_198)"/>
<path d="M942.27 134.601H945.21V135.658H937.59V134.601H940.99V123.392L937.75 125.327L937.19 124.429L941.19 121.956H942.27V134.601Z" fill="url(#paint64_linear_175_198)"/>
<path d="M941.07 144.55C942.497 144.55 943.577 145.155 944.31 146.365C945.057 147.561 945.43 149.303 945.43 151.59C945.43 153.877 945.057 155.625 944.31 156.835C943.577 158.045 942.497 158.65 941.07 158.65C939.657 158.65 938.577 158.045 937.83 156.835C937.084 155.625 936.71 153.877 936.71 151.59C936.71 149.316 937.084 147.574 937.83 146.365C938.577 145.155 939.657 144.55 941.07 144.55ZM938.13 151.59C938.13 153.212 938.277 154.482 938.57 155.399L943.01 146.564C942.543 145.939 941.897 145.627 941.07 145.627C940.15 145.627 939.43 146.119 938.91 147.102C938.39 148.073 938.13 149.569 938.13 151.59ZM941.07 157.553C942.003 157.553 942.73 157.068 943.25 156.097C943.77 155.113 944.03 153.611 944.03 151.59C944.03 149.875 943.863 148.545 943.53 147.601L939.09 156.516C939.57 157.207 940.23 157.553 941.07 157.553Z" fill="url(#paint65_linear_175_198)"/>
<path d="M942.27 180.186H945.21V181.243H937.59V180.186H940.99V168.978L937.75 170.912L937.19 170.015L941.19 167.542H942.27V180.186Z" fill="url(#paint66_linear_175_198)"/>
<path d="M941.07 190.135C942.497 190.135 943.577 190.74 944.31 191.95C945.057 193.147 945.43 194.888 945.43 197.175C945.43 199.462 945.057 201.211 944.31 202.421C943.577 203.63 942.497 204.235 941.07 204.235C939.657 204.235 938.577 203.63 937.83 202.421C937.084 201.211 936.71 199.462 936.71 197.175C936.71 194.902 937.084 193.16 937.83 191.95C938.577 190.74 939.657 190.135 941.07 190.135ZM938.13 197.175C938.13 198.797 938.277 200.067 938.57 200.985L943.01 192.15C942.543 191.525 941.897 191.212 941.07 191.212C940.15 191.212 939.43 191.704 938.91 192.688C938.39 193.659 938.13 195.154 938.13 197.175ZM941.07 203.139C942.003 203.139 942.73 202.653 943.25 201.683C943.77 200.699 944.03 199.196 944.03 197.175C944.03 195.46 943.863 194.131 943.53 193.187L939.09 202.101C939.57 202.793 940.23 203.139 941.07 203.139Z" fill="url(#paint67_linear_175_198)"/>
<path d="M941.07 212.928C942.497 212.928 943.577 213.533 944.31 214.743C945.057 215.94 945.43 217.681 945.43 219.968C945.43 222.255 945.057 224.003 944.31 225.213C943.577 226.423 942.497 227.028 941.07 227.028C939.657 227.028 938.577 226.423 937.83 225.213C937.084 224.003 936.71 222.255 936.71 219.968C936.71 217.695 937.084 215.953 937.83 214.743C938.577 213.533 939.657 212.928 941.07 212.928ZM938.13 219.968C938.13 221.59 938.277 222.86 938.57 223.777L943.01 214.942C942.543 214.317 941.897 214.005 941.07 214.005C940.15 214.005 939.43 214.497 938.91 215.481C938.39 216.451 938.13 217.947 938.13 219.968ZM941.07 225.931C942.003 225.931 942.73 225.446 943.25 224.475C943.77 223.492 944.03 221.989 944.03 219.968C944.03 218.253 943.863 216.923 943.53 215.979L939.09 224.894C939.57 225.586 940.23 225.931 941.07 225.931Z" fill="url(#paint68_linear_175_198)"/>
<path d="M942.27 248.565H945.21V249.622H937.59V248.565H940.99V237.356L937.75 239.291L937.19 238.393L941.19 235.92H942.27V248.565Z" fill="url(#paint69_linear_175_198)"/>
<path d="M941.07 258.514C942.497 258.514 943.577 259.119 944.31 260.329C945.057 261.525 945.43 263.267 945.43 265.554C945.43 267.841 945.057 269.589 944.31 270.799C943.577 272.009 942.497 272.614 941.07 272.614C939.657 272.614 938.577 272.009 937.83 270.799C937.084 269.589 936.71 267.841 936.71 265.554C936.71 263.28 937.084 261.538 937.83 260.329C938.577 259.119 939.657 258.514 941.07 258.514ZM938.13 265.554C938.13 267.176 938.277 268.446 938.57 269.363L943.01 260.528C942.543 259.903 941.897 259.591 941.07 259.591C940.15 259.591 939.43 260.083 938.91 261.066C938.39 262.037 938.13 263.533 938.13 265.554ZM941.07 271.517C942.003 271.517 942.73 271.032 943.25 270.061C943.77 269.077 944.03 267.575 944.03 265.554C944.03 263.839 943.863 262.509 943.53 261.565L939.09 270.48C939.57 271.171 940.23 271.517 941.07 271.517Z" fill="url(#paint70_linear_175_198)"/>
<path d="M942.27 294.15H945.21V295.207H937.59V294.15H940.99V282.942L937.75 284.876L937.19 283.979L941.19 281.506H942.27V294.15Z" fill="url(#paint71_linear_175_198)"/>
<path d="M942.27 316.943H945.21V318H937.59V316.943H940.99V305.735L937.75 307.669L937.19 306.772L941.19 304.299H942.27V316.943Z" fill="url(#paint72_linear_175_198)"/>
<path d="M885.36 53.3784C886.786 53.3784 887.866 53.9834 888.599 55.1933C889.346 56.3899 889.719 58.1317 889.719 60.4185C889.719 62.7054 889.346 64.4538 888.599 65.6637C887.866 66.8736 886.786 67.4786 885.36 67.4786C883.946 67.4786 882.867 66.8736 882.12 65.6637C881.373 64.4538 881 62.7054 881 60.4185C881 58.145 881.373 56.4032 882.12 55.1933C882.867 53.9834 883.946 53.3784 885.36 53.3784ZM882.42 60.4185C882.42 62.0406 882.567 63.3104 882.86 64.2278L887.3 55.3927C886.833 54.7678 886.186 54.4554 885.36 54.4554C884.44 54.4554 883.72 54.9473 883.2 55.9312C882.68 56.9018 882.42 58.3976 882.42 60.4185ZM885.36 66.3817C886.293 66.3817 887.02 65.8964 887.54 64.9258C888.06 63.9419 888.319 62.4395 888.319 60.4185C888.319 58.7034 888.153 57.3738 887.82 56.4298L883.38 65.3446C883.86 66.036 884.52 66.3817 885.36 66.3817Z" fill="url(#paint73_linear_175_198)"/>
<path d="M885.36 76.1712C886.786 76.1712 887.866 76.7762 888.599 77.9861C889.346 79.1827 889.719 80.9245 889.719 83.2113C889.719 85.4982 889.346 87.2466 888.599 88.4565C887.866 89.6664 886.786 90.2714 885.36 90.2714C883.946 90.2714 882.867 89.6664 882.12 88.4565C881.373 87.2466 881 85.4982 881 83.2113C881 80.9378 881.373 79.196 882.12 77.9861C882.867 76.7762 883.946 76.1712 885.36 76.1712ZM882.42 83.2113C882.42 84.8334 882.567 86.1032 882.86 87.0206L887.3 78.1855C886.833 77.5606 886.186 77.2482 885.36 77.2482C884.44 77.2482 883.72 77.7401 883.2 78.724C882.68 79.6946 882.42 81.1904 882.42 83.2113ZM885.36 89.1745C886.293 89.1745 887.02 88.6892 887.54 87.7186C888.06 86.7347 888.319 85.2323 888.319 83.2113C888.319 81.4962 888.153 80.1666 887.82 79.2226L883.38 88.1374C883.86 88.8288 884.52 89.1745 885.36 89.1745Z" fill="url(#paint74_linear_175_198)"/>
<path d="M886.56 111.808H889.499V112.865H881.88V111.808H885.28V100.599L882.04 102.534L881.48 101.636L885.48 99.1635H886.56V111.808Z" fill="url(#paint75_linear_175_198)"/>
<path d="M885.36 121.757C886.786 121.757 887.866 122.362 888.599 123.572C889.346 124.768 889.719 126.51 889.719 128.797C889.719 131.084 889.346 132.832 888.599 134.042C887.866 135.252 886.786 135.857 885.36 135.857C883.946 135.857 882.867 135.252 882.12 134.042C881.373 132.832 881 131.084 881 128.797C881 126.523 881.373 124.782 882.12 123.572C882.867 122.362 883.946 121.757 885.36 121.757ZM882.42 128.797C882.42 130.419 882.567 131.689 882.86 132.606L887.3 123.771C886.833 123.146 886.186 122.834 885.36 122.834C884.44 122.834 883.72 123.326 883.2 124.31C882.68 125.28 882.42 126.776 882.42 128.797ZM885.36 134.76C886.293 134.76 887.02 134.275 887.54 133.304C888.06 132.32 888.319 130.818 888.319 128.797C888.319 127.082 888.153 125.752 887.82 124.808L883.38 133.723C883.86 134.414 884.52 134.76 885.36 134.76Z" fill="url(#paint76_linear_175_198)"/>
<path d="M886.56 157.393H889.499V158.45H881.88V157.393H885.28V146.185L882.04 148.12L881.48 147.222L885.48 144.749H886.56V157.393Z" fill="url(#paint77_linear_175_198)"/>
<path d="M886.56 180.186H889.499V181.243H881.88V180.186H885.28V168.978L882.04 170.912L881.48 170.015L885.48 167.542H886.56V180.186Z" fill="url(#paint78_linear_175_198)"/>
<path d="M923.7 20.6365H926.64V21.6936H919.02V20.6365H922.42V9.42819L919.18 11.3627L918.62 10.4653L922.62 7.99224H923.7V20.6365Z" fill="url(#paint79_linear_175_198)"/>
<path d="M922.5 30.5856C923.927 30.5856 925.006 31.1906 925.74 32.4005C926.486 33.5971 926.86 35.3389 926.86 37.6257C926.86 39.9126 926.486 41.661 925.74 42.8709C925.006 44.0808 923.927 44.6858 922.5 44.6858C921.087 44.6858 920.007 44.0808 919.26 42.8709C918.514 41.661 918.14 39.9126 918.14 37.6257C918.14 35.3522 918.514 33.6104 919.26 32.4005C920.007 31.1906 921.087 30.5856 922.5 30.5856ZM919.56 37.6257C919.56 39.2478 919.707 40.5176 920 41.435L924.44 32.5999C923.973 31.975 923.327 31.6626 922.5 31.6626C921.58 31.6626 920.86 32.1545 920.34 33.1384C919.82 34.109 919.56 35.6048 919.56 37.6257ZM922.5 43.5889C923.433 43.5889 924.16 43.1036 924.68 42.133C925.2 41.1491 925.46 39.6467 925.46 37.6257C925.46 35.9106 925.293 34.581 924.96 33.637L920.52 42.5518C921 43.2432 921.66 43.5889 922.5 43.5889Z" fill="url(#paint80_linear_175_198)"/>
<path d="M923.7 66.2221H926.64V67.2792H919.02V66.2221H922.42V55.0138L919.18 56.9483L918.62 56.0509L922.62 53.5778H923.7V66.2221Z" fill="url(#paint81_linear_175_198)"/>
<path d="M923.7 89.015H926.64V90.072H919.02V89.015H922.42V77.8066L919.18 79.7411L918.62 78.8437L922.62 76.3706H923.7V89.015Z" fill="url(#paint82_linear_175_198)"/>
<path d="M922.5 98.964C923.927 98.964 925.006 99.569 925.74 100.779C926.486 101.976 926.86 103.717 926.86 106.004C926.86 108.291 926.486 110.039 925.74 111.249C925.006 112.459 923.927 113.064 922.5 113.064C921.087 113.064 920.007 112.459 919.26 111.249C918.514 110.039 918.14 108.291 918.14 106.004C918.14 103.731 918.514 101.989 919.26 100.779C920.007 99.569 921.087 98.964 922.5 98.964ZM919.56 106.004C919.56 107.626 919.707 108.896 920 109.813L924.44 100.978C923.973 100.353 923.327 100.041 922.5 100.041C921.58 100.041 920.86 100.533 920.34 101.517C919.82 102.487 919.56 103.983 919.56 106.004ZM922.5 111.967C923.433 111.967 924.16 111.482 924.68 110.511C925.2 109.528 925.46 108.025 925.46 106.004C925.46 104.289 925.293 102.959 924.96 102.015L920.52 110.93C921 111.622 921.66 111.967 922.5 111.967Z" fill="url(#paint83_linear_175_198)"/>
<path d="M923.7 134.601H926.64V135.658H919.02V134.601H922.42V123.392L919.18 125.327L918.62 124.429L922.62 121.956H923.7V134.601Z" fill="url(#paint84_linear_175_198)"/>
<path d="M923.7 157.393H926.64V158.45H919.02V157.393H922.42V146.185L919.18 148.12L918.62 147.222L922.62 144.749H923.7V157.393Z" fill="url(#paint85_linear_175_198)"/>
<path d="M922.5 167.342C923.927 167.342 925.006 167.947 925.74 169.157C926.486 170.354 926.86 172.096 926.86 174.383C926.86 176.669 926.486 178.418 925.74 179.628C925.006 180.838 923.927 181.443 922.5 181.443C921.087 181.443 920.007 180.838 919.26 179.628C918.514 178.418 918.14 176.669 918.14 174.383C918.14 172.109 918.514 170.367 919.26 169.157C920.007 167.947 921.087 167.342 922.5 167.342ZM919.56 174.383C919.56 176.005 919.707 177.274 920 178.192L924.44 169.357C923.973 168.732 923.327 168.419 922.5 168.419C921.58 168.419 920.86 168.911 920.34 169.895C919.82 170.866 919.56 172.362 919.56 174.383ZM922.5 180.346C923.433 180.346 924.16 179.86 924.68 178.89C925.2 177.906 925.46 176.404 925.46 174.383C925.46 172.667 925.293 171.338 924.96 170.394L920.52 179.309C921 180 921.66 180.346 922.5 180.346Z" fill="url(#paint86_linear_175_198)"/>
<path d="M923.7 202.979H926.64V204.036H919.02V202.979H922.42V191.771L919.18 193.705L918.62 192.808L922.62 190.335H923.7V202.979Z" fill="url(#paint87_linear_175_198)"/>
<path d="M922.5 212.928C923.927 212.928 925.006 213.533 925.74 214.743C926.486 215.94 926.86 217.681 926.86 219.968C926.86 222.255 926.486 224.003 925.74 225.213C925.006 226.423 923.927 227.028 922.5 227.028C921.087 227.028 920.007 226.423 919.26 225.213C918.514 224.003 918.14 222.255 918.14 219.968C918.14 217.695 918.514 215.953 919.26 214.743C920.007 213.533 921.087 212.928 922.5 212.928ZM919.56 219.968C919.56 221.59 919.707 222.86 920 223.777L924.44 214.942C923.973 214.317 923.327 214.005 922.5 214.005C921.58 214.005 920.86 214.497 920.34 215.481C919.82 216.451 919.56 217.947 919.56 219.968ZM922.5 225.931C923.433 225.931 924.16 225.446 924.68 224.475C925.2 223.492 925.46 221.989 925.46 219.968C925.46 218.253 925.293 216.923 924.96 215.979L920.52 224.894C921 225.586 921.66 225.931 922.5 225.931Z" fill="url(#paint88_linear_175_198)"/>
<path d="M959.64 7.7928C961.067 7.7928 962.147 8.39776 962.88 9.60768C963.627 10.8043 964 12.5461 964 14.8329C964 17.1198 963.627 18.8682 962.88 20.0781C962.147 21.288 961.067 21.893 959.64 21.893C958.227 21.893 957.147 21.288 956.401 20.0781C955.654 18.8682 955.281 17.1198 955.281 14.8329C955.281 12.5593 955.654 10.8176 956.401 9.60768C957.147 8.39776 958.227 7.7928 959.64 7.7928ZM956.7 14.8329C956.7 16.455 956.847 17.7248 957.14 18.6422L961.58 9.80712C961.114 9.18221 960.467 8.86976 959.64 8.86976C958.72 8.86976 958 9.36171 957.48 10.3456C956.96 11.3162 956.7 12.812 956.7 14.8329ZM959.64 20.7961C960.574 20.7961 961.3 20.3108 961.82 19.3402C962.34 18.3563 962.6 16.8539 962.6 14.8329C962.6 13.1178 962.433 11.7882 962.1 10.8442L957.66 19.759C958.14 20.4504 958.8 20.7961 959.64 20.7961Z" fill="url(#paint89_linear_175_198)"/>
<path d="M960.84 43.4293H963.78V44.4864H956.161V43.4293H959.56V32.221L956.321 34.1555L955.761 33.2581L959.76 30.785H960.84V43.4293Z" fill="url(#paint90_linear_175_198)"/>
<path d="M960.84 66.2221H963.78V67.2792H956.161V66.2221H959.56V55.0138L956.321 56.9483L955.761 56.0509L959.76 53.5778H960.84V66.2221Z" fill="url(#paint91_linear_175_198)"/>
<path d="M959.64 76.1712C961.067 76.1712 962.147 76.7762 962.88 77.9861C963.627 79.1827 964 80.9245 964 83.2113C964 85.4982 963.627 87.2466 962.88 88.4565C962.147 89.6664 961.067 90.2714 959.64 90.2714C958.227 90.2714 957.147 89.6664 956.401 88.4565C955.654 87.2466 955.281 85.4982 955.281 83.2113C955.281 80.9378 955.654 79.196 956.401 77.9861C957.147 76.7762 958.227 76.1712 959.64 76.1712ZM956.7 83.2113C956.7 84.8334 956.847 86.1032 957.14 87.0206L961.58 78.1855C961.114 77.5606 960.467 77.2482 959.64 77.2482C958.72 77.2482 958 77.7401 957.48 78.724C956.96 79.6946 956.7 81.1904 956.7 83.2113ZM959.64 89.1745C960.574 89.1745 961.3 88.6892 961.82 87.7186C962.34 86.7347 962.6 85.2323 962.6 83.2113C962.6 81.4962 962.433 80.1666 962.1 79.2226L957.66 88.1374C958.14 88.8288 958.8 89.1745 959.64 89.1745Z" fill="url(#paint92_linear_175_198)"/>
<path d="M959.64 98.964C961.067 98.964 962.147 99.569 962.88 100.779C963.627 101.976 964 103.717 964 106.004C964 108.291 963.627 110.039 962.88 111.249C962.147 112.459 961.067 113.064 959.64 113.064C958.227 113.064 957.147 112.459 956.401 111.249C955.654 110.039 955.281 108.291 955.281 106.004C955.281 103.731 955.654 101.989 956.401 100.779C957.147 99.569 958.227 98.964 959.64 98.964ZM956.7 106.004C956.7 107.626 956.847 108.896 957.14 109.813L961.58 100.978C961.114 100.353 960.467 100.041 959.64 100.041C958.72 100.041 958 100.533 957.48 101.517C956.96 102.487 956.7 103.983 956.7 106.004ZM959.64 111.967C960.574 111.967 961.3 111.482 961.82 110.511C962.34 109.528 962.6 108.025 962.6 106.004C962.6 104.289 962.433 102.959 962.1 102.015L957.66 110.93C958.14 111.622 958.8 111.967 959.64 111.967Z" fill="url(#paint93_linear_175_198)"/>
</g>
<defs>
<filter id="filter0_f_175_198" x="-574.19" y="-701.19" width="2141.38" height="1500.38" filterUnits="userSpaceOnUse" color-interpolation-filters="sRGB">
<feFlood flood-opacity="0" result="BackgroundImageFix"/>
<feBlend mode="normal" in="SourceGraphic" in2="BackgroundImageFix" result="shape"/>
<feGaussianBlur stdDeviation="200.095" result="effect1_foregroundBlur_175_198"/>
</filter>
<linearGradient id="paint0_linear_175_198" x1="36.5" y1="285" x2="36.5" y2="596.381" gradientUnits="userSpaceOnUse">
<stop stop-color="#F7DD43"/>
<stop offset="1" stop-color="#F7DD43" stop-opacity="0"/>
</linearGradient>
<linearGradient id="paint1_linear_175_198" x1="36.5" y1="285" x2="36.5" y2="596.381" gradientUnits="userSpaceOnUse">
<stop stop-color="#F7DD43"/>
<stop offset="1" stop-color="#F7DD43" stop-opacity="0"/>
</linearGradient>
<linearGradient id="paint2_linear_175_198" x1="36.5" y1="285" x2="36.5" y2="596.381" gradientUnits="userSpaceOnUse">
<stop stop-color="#F7DD43"/>
<stop offset="1" stop-color="#F7DD43" stop-opacity="0"/>
</linearGradient>
<linearGradient id="paint3_linear_175_198" x1="36.5" y1="285" x2="36.5" y2="596.381" gradientUnits="userSpaceOnUse">
<stop stop-color="#F7DD43"/>
<stop offset="1" stop-color="#F7DD43" stop-opacity="0"/>
</linearGradient>
<linearGradient id="paint4_linear_175_198" x1="36.5" y1="285" x2="36.5" y2="596.381" gradientUnits="userSpaceOnUse">
<stop stop-color="#F7DD43"/>
<stop offset="1" stop-color="#F7DD43" stop-opacity="0"/>
</linearGradient>
<linearGradient id="paint5_linear_175_198" x1="36.5" y1="285" x2="36.5" y2="596.381" gradientUnits="userSpaceOnUse">
<stop stop-color="#F7DD43"/>
<stop offset="1" stop-color="#F7DD43" stop-opacity="0"/>
</linearGradient>
<linearGradient id="paint6_linear_175_198" x1="36.5" y1="285" x2="36.5" y2="596.381" gradientUnits="userSpaceOnUse">
<stop stop-color="#F7DD43"/>
<stop offset="1" stop-color="#F7DD43" stop-opacity="0"/>
</linearGradient>
<linearGradient id="paint7_linear_175_198" x1="36.5" y1="285" x2="36.5" y2="596.381" gradientUnits="userSpaceOnUse">
<stop stop-color="#F7DD43"/>
<stop offset="1" stop-color="#F7DD43" stop-opacity="0"/>
</linearGradient>
<linearGradient id="paint8_linear_175_198" x1="36.5" y1="285" x2="36.5" y2="596.381" gradientUnits="userSpaceOnUse">
<stop stop-color="#F7DD43"/>
<stop offset="1" stop-color="#F7DD43" stop-opacity="0"/>
</linearGradient>
<linearGradient id="paint9_linear_175_198" x1="36.5" y1="285" x2="36.5" y2="596.381" gradientUnits="userSpaceOnUse">
<stop stop-color="#F7DD43"/>
<stop offset="1" stop-color="#F7DD43" stop-opacity="0"/>
</linearGradient>
<linearGradient id="paint10_linear_175_198" x1="36.5" y1="285" x2="36.5" y2="596.381" gradientUnits="userSpaceOnUse">
<stop stop-color="#F7DD43"/>
<stop offset="1" stop-color="#F7DD43" stop-opacity="0"/>
</linearGradient>
<linearGradient id="paint11_linear_175_198" x1="36.5" y1="285" x2="36.5" y2="596.381" gradientUnits="userSpaceOnUse">
<stop stop-color="#F7DD43"/>
<stop offset="1" stop-color="#F7DD43" stop-opacity="0"/>
</linearGradient>
<linearGradient id="paint12_linear_175_198" x1="36.5" y1="285" x2="36.5" y2="596.381" gradientUnits="userSpaceOnUse">
<stop stop-color="#F7DD43"/>
<stop offset="1" stop-color="#F7DD43" stop-opacity="0"/>
</linearGradient>
<linearGradient id="paint13_linear_175_198" x1="36.5" y1="285" x2="36.5" y2="596.381" gradientUnits="userSpaceOnUse">
<stop stop-color="#F7DD43"/>
<stop offset="1" stop-color="#F7DD43" stop-opacity="0"/>
</linearGradient>
<linearGradient id="paint14_linear_175_198" x1="36.5" y1="285" x2="36.5" y2="596.381" gradientUnits="userSpaceOnUse">
<stop stop-color="#F7DD43"/>
<stop offset="1" stop-color="#F7DD43" stop-opacity="0"/>
</linearGradient>
<linearGradient id="paint15_linear_175_198" x1="36.5" y1="285" x2="36.5" y2="596.381" gradientUnits="userSpaceOnUse">
<stop stop-color="#F7DD43"/>
<stop offset="1" stop-color="#F7DD43" stop-opacity="0"/>
</linearGradient>
<linearGradient id="paint16_linear_175_198" x1="36.5" y1="285" x2="36.5" y2="596.381" gradientUnits="userSpaceOnUse">
<stop stop-color="#F7DD43"/>
<stop offset="1" stop-color="#F7DD43" stop-opacity="0"/>
</linearGradient>
<linearGradient id="paint17_linear_175_198" x1="36.5" y1="285" x2="36.5" y2="596.381" gradientUnits="userSpaceOnUse">
<stop stop-color="#F7DD43"/>
<stop offset="1" stop-color="#F7DD43" stop-opacity="0"/>
</linearGradient>
<linearGradient id="paint18_linear_175_198" x1="36.5" y1="285" x2="36.5" y2="596.381" gradientUnits="userSpaceOnUse">
<stop stop-color="#F7DD43"/>
<stop offset="1" stop-color="#F7DD43" stop-opacity="0"/>
</linearGradient>
<linearGradient id="paint19_linear_175_198" x1="36.5" y1="285" x2="36.5" y2="596.381" gradientUnits="userSpaceOnUse">
<stop stop-color="#F7DD43"/>
<stop offset="1" stop-color="#F7DD43" stop-opacity="0"/>
</linearGradient>
<linearGradient id="paint20_linear_175_198" x1="36.5" y1="285" x2="36.5" y2="596.381" gradientUnits="userSpaceOnUse">
<stop stop-color="#F7DD43"/>
<stop offset="1" stop-color="#F7DD43" stop-opacity="0"/>
</linearGradient>
<linearGradient id="paint21_linear_175_198" x1="36.5" y1="285" x2="36.5" y2="596.381" gradientUnits="userSpaceOnUse">
<stop stop-color="#F7DD43"/>
<stop offset="1" stop-color="#F7DD43" stop-opacity="0"/>
</linearGradient>
<linearGradient id="paint22_linear_175_198" x1="36.5" y1="285" x2="36.5" y2="596.381" gradientUnits="userSpaceOnUse">
<stop stop-color="#F7DD43"/>
<stop offset="1" stop-color="#F7DD43" stop-opacity="0"/>
</linearGradient>
<linearGradient id="paint23_linear_175_198" x1="36.5" y1="285" x2="36.5" y2="596.381" gradientUnits="userSpaceOnUse">
<stop stop-color="#F7DD43"/>
<stop offset="1" stop-color="#F7DD43" stop-opacity="0"/>
</linearGradient>
<linearGradient id="paint24_linear_175_198" x1="36.5" y1="285" x2="36.5" y2="596.381" gradientUnits="userSpaceOnUse">
<stop stop-color="#F7DD43"/>
<stop offset="1" stop-color="#F7DD43" stop-opacity="0"/>
</linearGradient>
<linearGradient id="paint25_linear_175_198" x1="36.5" y1="285" x2="36.5" y2="596.381" gradientUnits="userSpaceOnUse">
<stop stop-color="#F7DD43"/>
<stop offset="1" stop-color="#F7DD43" stop-opacity="0"/>
</linearGradient>
<linearGradient id="paint26_linear_175_198" x1="36.5" y1="285" x2="36.5" y2="596.381" gradientUnits="userSpaceOnUse">
<stop stop-color="#F7DD43"/>
<stop offset="1" stop-color="#F7DD43" stop-opacity="0"/>
</linearGradient>
<linearGradient id="paint27_linear_175_198" x1="36.5" y1="285" x2="36.5" y2="596.381" gradientUnits="userSpaceOnUse">
<stop stop-color="#F7DD43"/>
<stop offset="1" stop-color="#F7DD43" stop-opacity="0"/>
</linearGradient>
<linearGradient id="paint28_linear_175_198" x1="36.5" y1="285" x2="36.5" y2="596.381" gradientUnits="userSpaceOnUse">
<stop stop-color="#F7DD43"/>
<stop offset="1" stop-color="#F7DD43" stop-opacity="0"/>
</linearGradient>
<linearGradient id="paint29_linear_175_198" x1="36.5" y1="285" x2="36.5" y2="596.381" gradientUnits="userSpaceOnUse">
<stop stop-color="#F7DD43"/>
<stop offset="1" stop-color="#F7DD43" stop-opacity="0"/>
</linearGradient>
<linearGradient id="paint30_linear_175_198" x1="36.5" y1="285" x2="36.5" y2="596.381" gradientUnits="userSpaceOnUse">
<stop stop-color="#F7DD43"/>
<stop offset="1" stop-color="#F7DD43" stop-opacity="0"/>
</linearGradient>
<linearGradient id="paint31_linear_175_198" x1="36.5" y1="285" x2="36.5" y2="596.381" gradientUnits="userSpaceOnUse">
<stop stop-color="#F7DD43"/>
<stop offset="1" stop-color="#F7DD43" stop-opacity="0"/>
</linearGradient>
<linearGradient id="paint32_linear_175_198" x1="36.5" y1="285" x2="36.5" y2="596.381" gradientUnits="userSpaceOnUse">
<stop stop-color="#F7DD43"/>
<stop offset="1" stop-color="#F7DD43" stop-opacity="0"/>
</linearGradient>
<linearGradient id="paint33_linear_175_198" x1="36.5" y1="285" x2="36.5" y2="596.381" gradientUnits="userSpaceOnUse">
<stop stop-color="#F7DD43"/>
<stop offset="1" stop-color="#F7DD43" stop-opacity="0"/>
</linearGradient>
<linearGradient id="paint34_linear_175_198" x1="36.5" y1="285" x2="36.5" y2="596.381" gradientUnits="userSpaceOnUse">
<stop stop-color="#F7DD43"/>
<stop offset="1" stop-color="#F7DD43" stop-opacity="0"/>
</linearGradient>
<linearGradient id="paint35_linear_175_198" x1="36.5" y1="285" x2="36.5" y2="596.381" gradientUnits="userSpaceOnUse">
<stop stop-color="#F7DD43"/>
<stop offset="1" stop-color="#F7DD43" stop-opacity="0"/>
</linearGradient>
<linearGradient id="paint36_linear_175_198" x1="36.5" y1="285" x2="36.5" y2="596.381" gradientUnits="userSpaceOnUse">
<stop stop-color="#F7DD43"/>
<stop offset="1" stop-color="#F7DD43" stop-opacity="0"/>
</linearGradient>
<linearGradient id="paint37_linear_175_198" x1="36.5" y1="285" x2="36.5" y2="596.381" gradientUnits="userSpaceOnUse">
<stop stop-color="#F7DD43"/>
<stop offset="1" stop-color="#F7DD43" stop-opacity="0"/>
</linearGradient>
<linearGradient id="paint38_linear_175_198" x1="36.5" y1="285" x2="36.5" y2="596.381" gradientUnits="userSpaceOnUse">
<stop stop-color="#F7DD43"/>
<stop offset="1" stop-color="#F7DD43" stop-opacity="0"/>
</linearGradient>
<linearGradient id="paint39_linear_175_198" x1="36.5" y1="285" x2="36.5" y2="596.381" gradientUnits="userSpaceOnUse">
<stop stop-color="#F7DD43"/>
<stop offset="1" stop-color="#F7DD43" stop-opacity="0"/>
</linearGradient>
<linearGradient id="paint40_linear_175_198" x1="36.5" y1="285" x2="36.5" y2="596.381" gradientUnits="userSpaceOnUse">
<stop stop-color="#F7DD43"/>
<stop offset="1" stop-color="#F7DD43" stop-opacity="0"/>
</linearGradient>
<linearGradient id="paint41_linear_175_198" x1="36.5" y1="285" x2="36.5" y2="596.381" gradientUnits="userSpaceOnUse">
<stop stop-color="#F7DD43"/>
<stop offset="1" stop-color="#F7DD43" stop-opacity="0"/>
</linearGradient>
<linearGradient id="paint42_linear_175_198" x1="36.5" y1="285" x2="36.5" y2="596.381" gradientUnits="userSpaceOnUse">
<stop stop-color="#F7DD43"/>
<stop offset="1" stop-color="#F7DD43" stop-opacity="0"/>
</linearGradient>
<linearGradient id="paint43_linear_175_198" x1="36.5" y1="285" x2="36.5" y2="596.381" gradientUnits="userSpaceOnUse">
<stop stop-color="#F7DD43"/>
<stop offset="1" stop-color="#F7DD43" stop-opacity="0"/>
</linearGradient>
<linearGradient id="paint44_linear_175_198" x1="36.5" y1="285" x2="36.5" y2="596.381" gradientUnits="userSpaceOnUse">
<stop stop-color="#F7DD43"/>
<stop offset="1" stop-color="#F7DD43" stop-opacity="0"/>
</linearGradient>
<linearGradient id="paint45_linear_175_198" x1="36.5" y1="285" x2="36.5" y2="596.381" gradientUnits="userSpaceOnUse">
<stop stop-color="#F7DD43"/>
<stop offset="1" stop-color="#F7DD43" stop-opacity="0"/>
</linearGradient>
<linearGradient id="paint46_linear_175_198" x1="36.5" y1="285" x2="36.5" y2="596.381" gradientUnits="userSpaceOnUse">
<stop stop-color="#F7DD43"/>
<stop offset="1" stop-color="#F7DD43" stop-opacity="0"/>
</linearGradient>
<linearGradient id="paint47_linear_175_198" x1="922.5" y1="-15" x2="922.5" y2="283.818" gradientUnits="userSpaceOnUse">
<stop stop-color="#F7DD43"/>
<stop offset="1" stop-color="#F7DD43" stop-opacity="0"/>
</linearGradient>
<linearGradient id="paint48_linear_175_198" x1="922.5" y1="-15" x2="922.5" y2="283.818" gradientUnits="userSpaceOnUse">
<stop stop-color="#F7DD43"/>
<stop offset="1" stop-color="#F7DD43" stop-opacity="0"/>
</linearGradient>
<linearGradient id="paint49_linear_175_198" x1="922.5" y1="-15" x2="922.5" y2="283.818" gradientUnits="userSpaceOnUse">
<stop stop-color="#F7DD43"/>
<stop offset="1" stop-color="#F7DD43" stop-opacity="0"/>
</linearGradient>
<linearGradient id="paint50_linear_175_198" x1="922.5" y1="-15" x2="922.5" y2="283.818" gradientUnits="userSpaceOnUse">
<stop stop-color="#F7DD43"/>
<stop offset="1" stop-color="#F7DD43" stop-opacity="0"/>
</linearGradient>
<linearGradient id="paint51_linear_175_198" x1="922.5" y1="-15" x2="922.5" y2="283.818" gradientUnits="userSpaceOnUse">
<stop stop-color="#F7DD43"/>
<stop offset="1" stop-color="#F7DD43" stop-opacity="0"/>
</linearGradient>
<linearGradient id="paint52_linear_175_198" x1="922.5" y1="-15" x2="922.5" y2="283.818" gradientUnits="userSpaceOnUse">
<stop stop-color="#F7DD43"/>
<stop offset="1" stop-color="#F7DD43" stop-opacity="0"/>
</linearGradient>
<linearGradient id="paint53_linear_175_198" x1="922.5" y1="-15" x2="922.5" y2="283.818" gradientUnits="userSpaceOnUse">
<stop stop-color="#F7DD43"/>
<stop offset="1" stop-color="#F7DD43" stop-opacity="0"/>
</linearGradient>
<linearGradient id="paint54_linear_175_198" x1="922.5" y1="-15" x2="922.5" y2="283.818" gradientUnits="userSpaceOnUse">
<stop stop-color="#F7DD43"/>
<stop offset="1" stop-color="#F7DD43" stop-opacity="0"/>
</linearGradient>
<linearGradient id="paint55_linear_175_198" x1="922.5" y1="-15" x2="922.5" y2="283.818" gradientUnits="userSpaceOnUse">
<stop stop-color="#F7DD43"/>
<stop offset="1" stop-color="#F7DD43" stop-opacity="0"/>
</linearGradient>
<linearGradient id="paint56_linear_175_198" x1="922.5" y1="-15" x2="922.5" y2="283.818" gradientUnits="userSpaceOnUse">
<stop stop-color="#F7DD43"/>
<stop offset="1" stop-color="#F7DD43" stop-opacity="0"/>
</linearGradient>
<linearGradient id="paint57_linear_175_198" x1="922.5" y1="-15" x2="922.5" y2="283.818" gradientUnits="userSpaceOnUse">
<stop stop-color="#F7DD43"/>
<stop offset="1" stop-color="#F7DD43" stop-opacity="0"/>
</linearGradient>
<linearGradient id="paint58_linear_175_198" x1="922.5" y1="-15" x2="922.5" y2="283.818" gradientUnits="userSpaceOnUse">
<stop stop-color="#F7DD43"/>
<stop offset="1" stop-color="#F7DD43" stop-opacity="0"/>
</linearGradient>
<linearGradient id="paint59_linear_175_198" x1="922.5" y1="-15" x2="922.5" y2="283.818" gradientUnits="userSpaceOnUse">
<stop stop-color="#F7DD43"/>
<stop offset="1" stop-color="#F7DD43" stop-opacity="0"/>
</linearGradient>
<linearGradient id="paint60_linear_175_198" x1="922.5" y1="-15" x2="922.5" y2="283.818" gradientUnits="userSpaceOnUse">
<stop stop-color="#F7DD43"/>
<stop offset="1" stop-color="#F7DD43" stop-opacity="0"/>
</linearGradient>
<linearGradient id="paint61_linear_175_198" x1="922.5" y1="-15" x2="922.5" y2="283.818" gradientUnits="userSpaceOnUse">
<stop stop-color="#F7DD43"/>
<stop offset="1" stop-color="#F7DD43" stop-opacity="0"/>
</linearGradient>
<linearGradient id="paint62_linear_175_198" x1="922.5" y1="-15" x2="922.5" y2="283.818" gradientUnits="userSpaceOnUse">
<stop stop-color="#F7DD43"/>
<stop offset="1" stop-color="#F7DD43" stop-opacity="0"/>
</linearGradient>
<linearGradient id="paint63_linear_175_198" x1="922.5" y1="-15" x2="922.5" y2="283.818" gradientUnits="userSpaceOnUse">
<stop stop-color="#F7DD43"/>
<stop offset="1" stop-color="#F7DD43" stop-opacity="0"/>
</linearGradient>
<linearGradient id="paint64_linear_175_198" x1="922.5" y1="-15" x2="922.5" y2="283.818" gradientUnits="userSpaceOnUse">
<stop stop-color="#F7DD43"/>
<stop offset="1" stop-color="#F7DD43" stop-opacity="0"/>
</linearGradient>
<linearGradient id="paint65_linear_175_198" x1="922.5" y1="-15" x2="922.5" y2="283.818" gradientUnits="userSpaceOnUse">
<stop stop-color="#F7DD43"/>
<stop offset="1" stop-color="#F7DD43" stop-opacity="0"/>
</linearGradient>
<linearGradient id="paint66_linear_175_198" x1="922.5" y1="-15" x2="922.5" y2="283.818" gradientUnits="userSpaceOnUse">
<stop stop-color="#F7DD43"/>
<stop offset="1" stop-color="#F7DD43" stop-opacity="0"/>
</linearGradient>
<linearGradient id="paint67_linear_175_198" x1="922.5" y1="-15" x2="922.5" y2="283.818" gradientUnits="userSpaceOnUse">
<stop stop-color="#F7DD43"/>
<stop offset="1" stop-color="#F7DD43" stop-opacity="0"/>
</linearGradient>
<linearGradient id="paint68_linear_175_198" x1="922.5" y1="-15" x2="922.5" y2="283.818" gradientUnits="userSpaceOnUse">
<stop stop-color="#F7DD43"/>
<stop offset="1" stop-color="#F7DD43" stop-opacity="0"/>
</linearGradient>
<linearGradient id="paint69_linear_175_198" x1="922.5" y1="-15" x2="922.5" y2="283.818" gradientUnits="userSpaceOnUse">
<stop stop-color="#F7DD43"/>
<stop offset="1" stop-color="#F7DD43" stop-opacity="0"/>
</linearGradient>
<linearGradient id="paint70_linear_175_198" x1="922.5" y1="-15" x2="922.5" y2="283.818" gradientUnits="userSpaceOnUse">
<stop stop-color="#F7DD43"/>
<stop offset="1" stop-color="#F7DD43" stop-opacity="0"/>
</linearGradient>
<linearGradient id="paint71_linear_175_198" x1="922.5" y1="-15" x2="922.5" y2="283.818" gradientUnits="userSpaceOnUse">
<stop stop-color="#F7DD43"/>
<stop offset="1" stop-color="#F7DD43" stop-opacity="0"/>
</linearGradient>
<linearGradient id="paint72_linear_175_198" x1="922.5" y1="-15" x2="922.5" y2="283.818" gradientUnits="userSpaceOnUse">
<stop stop-color="#F7DD43"/>
<stop offset="1" stop-color="#F7DD43" stop-opacity="0"/>
</linearGradient>
<linearGradient id="paint73_linear_175_198" x1="922.5" y1="-15" x2="922.5" y2="283.818" gradientUnits="userSpaceOnUse">
<stop stop-color="#F7DD43"/>
<stop offset="1" stop-color="#F7DD43" stop-opacity="0"/>
</linearGradient>
<linearGradient id="paint74_linear_175_198" x1="922.5" y1="-15" x2="922.5" y2="283.818" gradientUnits="userSpaceOnUse">
<stop stop-color="#F7DD43"/>
<stop offset="1" stop-color="#F7DD43" stop-opacity="0"/>
</linearGradient>
<linearGradient id="paint75_linear_175_198" x1="922.5" y1="-15" x2="922.5" y2="283.818" gradientUnits="userSpaceOnUse">
<stop stop-color="#F7DD43"/>
<stop offset="1" stop-color="#F7DD43" stop-opacity="0"/>
</linearGradient>
<linearGradient id="paint76_linear_175_198" x1="922.5" y1="-15" x2="922.5" y2="283.818" gradientUnits="userSpaceOnUse">
<stop stop-color="#F7DD43"/>
<stop offset="1" stop-color="#F7DD43" stop-opacity="0"/>
</linearGradient>
<linearGradient id="paint77_linear_175_198" x1="922.5" y1="-15" x2="922.5" y2="283.818" gradientUnits="userSpaceOnUse">
<stop stop-color="#F7DD43"/>
<stop offset="1" stop-color="#F7DD43" stop-opacity="0"/>
</linearGradient>
<linearGradient id="paint78_linear_175_198" x1="922.5" y1="-15" x2="922.5" y2="283.818" gradientUnits="userSpaceOnUse">
<stop stop-color="#F7DD43"/>
<stop offset="1" stop-color="#F7DD43" stop-opacity="0"/>
</linearGradient>
<linearGradient id="paint79_linear_175_198" x1="922.5" y1="-15" x2="922.5" y2="283.818" gradientUnits="userSpaceOnUse">
<stop stop-color="#F7DD43"/>
<stop offset="1" stop-color="#F7DD43" stop-opacity="0"/>
</linearGradient>
<linearGradient id="paint80_linear_175_198" x1="922.5" y1="-15" x2="922.5" y2="283.818" gradientUnits="userSpaceOnUse">
<stop stop-color="#F7DD43"/>
<stop offset="1" stop-color="#F7DD43" stop-opacity="0"/>
</linearGradient>
<linearGradient id="paint81_linear_175_198" x1="922.5" y1="-15" x2="922.5" y2="283.818" gradientUnits="userSpaceOnUse">
<stop stop-color="#F7DD43"/>
<stop offset="1" stop-color="#F7DD43" stop-opacity="0"/>
</linearGradient>
<linearGradient id="paint82_linear_175_198" x1="922.5" y1="-15" x2="922.5" y2="283.818" gradientUnits="userSpaceOnUse">
<stop stop-color="#F7DD43"/>
<stop offset="1" stop-color="#F7DD43" stop-opacity="0"/>
</linearGradient>
<linearGradient id="paint83_linear_175_198" x1="922.5" y1="-15" x2="922.5" y2="283.818" gradientUnits="userSpaceOnUse">
<stop stop-color="#F7DD43"/>
<stop offset="1" stop-color="#F7DD43" stop-opacity="0"/>
</linearGradient>
<linearGradient id="paint84_linear_175_198" x1="922.5" y1="-15" x2="922.5" y2="283.818" gradientUnits="userSpaceOnUse">
<stop stop-color="#F7DD43"/>
<stop offset="1" stop-color="#F7DD43" stop-opacity="0"/>
</linearGradient>
<linearGradient id="paint85_linear_175_198" x1="922.5" y1="-15" x2="922.5" y2="283.818" gradientUnits="userSpaceOnUse">
<stop stop-color="#F7DD43"/>
<stop offset="1" stop-color="#F7DD43" stop-opacity="0"/>
</linearGradient>
<linearGradient id="paint86_linear_175_198" x1="922.5" y1="-15" x2="922.5" y2="283.818" gradientUnits="userSpaceOnUse">
<stop stop-color="#F7DD43"/>
<stop offset="1" stop-color="#F7DD43" stop-opacity="0"/>
</linearGradient>
<linearGradient id="paint87_linear_175_198" x1="922.5" y1="-15" x2="922.5" y2="283.818" gradientUnits="userSpaceOnUse">
<stop stop-color="#F7DD43"/>
<stop offset="1" stop-color="#F7DD43" stop-opacity="0"/>
</linearGradient>
<linearGradient id="paint88_linear_175_198" x1="922.5" y1="-15" x2="922.5" y2="283.818" gradientUnits="userSpaceOnUse">
<stop stop-color="#F7DD43"/>
<stop offset="1" stop-color="#F7DD43" stop-opacity="0"/>
</linearGradient>
<linearGradient id="paint89_linear_175_198" x1="922.5" y1="-15" x2="922.5" y2="283.818" gradientUnits="userSpaceOnUse">
<stop stop-color="#F7DD43"/>
<stop offset="1" stop-color="#F7DD43" stop-opacity="0"/>
</linearGradient>
<linearGradient id="paint90_linear_175_198" x1="922.5" y1="-15" x2="922.5" y2="283.818" gradientUnits="userSpaceOnUse">
<stop stop-color="#F7DD43"/>
<stop offset="1" stop-color="#F7DD43" stop-opacity="0"/>
</linearGradient>
<linearGradient id="paint91_linear_175_198" x1="922.5" y1="-15" x2="922.5" y2="283.818" gradientUnits="userSpaceOnUse">
<stop stop-color="#F7DD43"/>
<stop offset="1" stop-color="#F7DD43" stop-opacity="0"/>
</linearGradient>
<linearGradient id="paint92_linear_175_198" x1="922.5" y1="-15" x2="922.5" y2="283.818" gradientUnits="userSpaceOnUse">
<stop stop-color="#F7DD43"/>
<stop offset="1" stop-color="#F7DD43" stop-opacity="0"/>
</linearGradient>
<linearGradient id="paint93_linear_175_198" x1="922.5" y1="-15" x2="922.5" y2="283.818" gradientUnits="userSpaceOnUse">
<stop stop-color="#F7DD43"/>
<stop offset="1" stop-color="#F7DD43" stop-opacity="0"/>
</linearGradient>
</defs>
</svg>
